<svg xmlns="http://www.w3.org/2000/svg" width="375" height="812" viewBox="0 0 375 812" font-family="sans-serif">
<rect x="0" y="0" width="375" height="812" fill="#fff" stroke="#222" stroke-width="2"/>
<rect x="0" y="0" width="375" height="24" fill="#fafafa"/>
<text x="12" y="16" font-size="10" fill="#888">9:41</text>
<text x="363" y="16" font-size="10" fill="#888" text-anchor="end">100%</text>
<!-- screen title chip -->
<text x="365" y="804" font-size="9" fill="#ccc" text-anchor="end">consent</text><rect x="0" y="24" width="375" height="48" fill="#fafafa" stroke="#bbb"/><text x="187.5" y="54" font-size="15" fill="#333" text-anchor="middle" font-weight="bold">ご利用にあたって</text><rect x="16" y="90" width="343" height="150" rx="8" fill="#f4f4f5" stroke="#bbb"/><text x="28" y="112" font-size="12" fill="#333">利用目的の説明</text><text x="28" y="130" font-size="10" fill="#888">贈答記録の管理・お返し支援に利用します</text><rect x="16" y="256" width="343" height="120" rx="8" fill="#f4f4f5" stroke="#bbb"/><text x="28" y="278" font-size="12" fill="#333">データの扱い</text><text x="28" y="296" font-size="10" fill="#888">氏名/関係/金額は機微情報として暗号化保存</text><rect x="16" y="392" width="343" height="110" rx="8" fill="#f4f4f5" stroke="#bbb"/><text x="28" y="414" font-size="12" fill="#333">第三者(贈り先)の情報</text><text x="28" y="432" font-size="10" fill="#888">取り扱い方針・削除の手段を明記</text><rect x="16" y="520" width="20" height="20" rx="4" fill="#fff" stroke="#bbb"/><text x="44" y="535" font-size="11" fill="#333">上記に同意します</text><rect x="16" y="560" width="343" height="44" rx="22" fill="#3b3b3b" stroke="#3b3b3b"/><text x="187.5" y="588" font-size="13" fill="#fff" text-anchor="middle">同意して始める</text><text x="16" y="624" font-size="9" fill="#888">S-14 / 初回ログイン後に一度だけ表示</text>
</svg>
