<svg xmlns="http://www.w3.org/2000/svg" width="375" height="812" viewBox="0 0 375 812" font-family="sans-serif">
<rect x="0" y="0" width="375" height="812" fill="#fff" stroke="#222" stroke-width="2"/>
<rect x="0" y="0" width="375" height="24" fill="#fafafa"/>
<text x="12" y="16" font-size="10" fill="#888">9:41</text>
<text x="363" y="16" font-size="10" fill="#888" text-anchor="end">100%</text>
<!-- screen title chip -->
<text x="365" y="804" font-size="9" fill="#ccc" text-anchor="end">event-detail</text><rect x="0" y="24" width="375" height="48" fill="#fafafa" stroke="#bbb"/><text x="14" y="54" font-size="18" fill="#333">‹</text><text x="187.5" y="54" font-size="15" fill="#333" text-anchor="middle" font-weight="bold">贈答の詳細</text><text x="361" y="54" font-size="12" fill="#3b3b3b" text-anchor="end">編集</text><rect x="16" y="84" width="343" height="84" rx="8" fill="#f4f4f5" stroke="#bbb"/><text x="28" y="106" font-size="12" fill="#333">佐藤 花子 / 出産祝い</text><text x="28" y="124" font-size="10" fill="#888">¥30,000 受領 — 2026-05-20</text><text x="16" y="200" font-size="11" fill="#333" font-weight="bold">ステータス</text><circle cx="60" cy="232" r="12" fill="#3b3b3b" stroke="#3b3b3b"/><text x="60" y="262" font-size="10" fill="#333" text-anchor="middle">受領</text><line x1="72" y1="232" x2="168" y2="232" stroke="#bbb"/><circle cx="180" cy="232" r="12" fill="#3b3b3b" stroke="#3b3b3b"/><text x="180" y="262" font-size="10" fill="#333" text-anchor="middle">検討中</text><line x1="192" y1="232" x2="288" y2="232" stroke="#bbb"/><circle cx="300" cy="232" r="12" fill="#fff" stroke="#bbb"/><text x="300" y="262" font-size="10" fill="#333" text-anchor="middle">完了</text><rect x="16" y="290" width="343" height="80" rx="8" fill="#f4f4f5" stroke="#bbb"/><text x="28" y="312" font-size="12" fill="#333">紐付くお返し</text><text x="28" y="330" font-size="10" fill="#888">カタログギフト B ¥12,000（提案）＋礼状あり</text><rect x="16" y="396" width="343" height="44" rx="22" fill="#3b3b3b" stroke="#3b3b3b"/><text x="187.5" y="424" font-size="13" fill="#fff" text-anchor="middle">お返しの続き（半返し→提案→礼状）</text><rect x="16" y="460" width="343" height="44" rx="22" fill="#fff" stroke="#a33"/><text x="187.5" y="488" font-size="13" fill="#a33" text-anchor="middle">このイベントを削除</text><text x="16" y="782" font-size="9" fill="#888">削除は確認ダイアログ＋監査記録 (S-8)</text>
</svg>
