<svg xmlns="http://www.w3.org/2000/svg" width="375" height="812" viewBox="0 0 375 812" font-family="sans-serif">
<rect x="0" y="0" width="375" height="812" fill="#fff" stroke="#222" stroke-width="2"/>
<rect x="0" y="0" width="375" height="24" fill="#fafafa"/>
<text x="12" y="16" font-size="10" fill="#888">9:41</text>
<text x="363" y="16" font-size="10" fill="#888" text-anchor="end">100%</text>
<!-- screen title chip -->
<text x="365" y="804" font-size="9" fill="#ccc" text-anchor="end">extract-error</text><rect x="0" y="24" width="375" height="48" fill="#fafafa" stroke="#bbb"/><text x="14" y="54" font-size="18" fill="#333">‹</text><text x="187.5" y="54" font-size="15" fill="#333" text-anchor="middle" font-weight="bold">読み取れませんでした</text><rect x="16" y="84" width="343" height="56" rx="8" fill="#fbf3e6" stroke="#b8860b"/><text x="28" y="108" font-size="12" fill="#b8860b">うまく読み取れませんでした</text><text x="28" y="126" font-size="10" fill="#888">手入力で続けられます（汎用文言 / OWASP）</text><text x="16" y="172" font-size="10" fill="#888">金額</text><rect x="16" y="176" width="343" height="36" rx="6" fill="#fff" stroke="#bbb"/><text x="16" y="236" font-size="10" fill="#888">お相手の氏名</text><rect x="16" y="240" width="343" height="36" rx="6" fill="#fff" stroke="#bbb"/><text x="16" y="300" font-size="10" fill="#888">用途</text><rect x="16" y="304" width="167.5" height="36" rx="6" fill="#fff" stroke="#bbb"/><text x="191.5" y="300" font-size="10" fill="#888">日付</text><rect x="191.5" y="304" width="167.5" height="36" rx="6" fill="#fff" stroke="#bbb"/><rect x="16" y="400" width="343" height="44" rx="22" fill="#3b3b3b" stroke="#3b3b3b"/><text x="187.5" y="428" font-size="13" fill="#fff" text-anchor="middle">手入力で続ける</text><rect x="16" y="452" width="343" height="44" rx="22" fill="#fff" stroke="#3b3b3b"/><text x="187.5" y="480" font-size="13" fill="#333" text-anchor="middle">撮影し直す</text><rect x="0" y="768" width="375" height="44" fill="#fafafa" stroke="#bbb"/><rect x="10.0" y="788" width="73.75" height="4" rx="2" fill="#3b3b3b"/><rect x="103.75" y="788" width="73.75" height="4" rx="2" fill="#3b3b3b"/><rect x="197.5" y="788" width="73.75" height="4" rx="2" fill="#bbb"/><rect x="291.25" y="788" width="73.75" height="4" rx="2" fill="#bbb"/><text x="187.5" y="783" font-size="9" fill="#888" text-anchor="middle">撮影ウィザード 2/4</text><text x="16" y="758" font-size="9" fill="#888">error 状態の代表 / 内部情報を出さない</text>
</svg>
