<svg xmlns="http://www.w3.org/2000/svg" width="375" height="812" viewBox="0 0 375 812" font-family="sans-serif">
<rect x="0" y="0" width="375" height="812" fill="#fff" stroke="#222" stroke-width="2"/>
<rect x="0" y="0" width="375" height="24" fill="#fafafa"/>
<text x="12" y="16" font-size="10" fill="#888">9:41</text>
<text x="363" y="16" font-size="10" fill="#888" text-anchor="end">100%</text>
<!-- screen title chip -->
<text x="365" y="804" font-size="9" fill="#ccc" text-anchor="end">extract-review</text><rect x="0" y="24" width="375" height="48" fill="#fafafa" stroke="#bbb"/><text x="14" y="54" font-size="18" fill="#333">‹</text><text x="187.5" y="54" font-size="15" fill="#333" text-anchor="middle" font-weight="bold">内容を確認</text><rect x="283" y="84" width="72" height="72" rx="8" fill="#eee" stroke="#bbb" stroke-dasharray="5 4"/><text x="295" y="106" font-size="12" fill="#333">画像</text><text x="16" y="114" font-size="10" fill="#888">金額</text><rect x="16" y="118" width="255" height="36" rx="6" fill="#fff" stroke="#bbb"/><text x="26" y="141" font-size="12" fill="#333">¥30,000</text><text x="16" y="178" font-size="10" fill="#888">お相手の氏名</text><rect x="16" y="182" width="343" height="36" rx="6" fill="#fff" stroke="#b8860b"/><text x="26" y="205" font-size="12" fill="#333">佐藤 花子</text><text x="351" y="204" font-size="9" fill="#b8860b" text-anchor="end">要確認</text><text x="16" y="242" font-size="10" fill="#888">続柄</text><rect x="16" y="246" width="167.5" height="36" rx="6" fill="#fff" stroke="#bbb"/><text x="26" y="269" font-size="12" fill="#333">友人</text><text x="191.5" y="242" font-size="10" fill="#888">用途</text><rect x="191.5" y="246" width="167.5" height="36" rx="6" fill="#fff" stroke="#bbb"/><text x="201.5" y="269" font-size="12" fill="#333">出産祝い</text><text x="16" y="306" font-size="10" fill="#888">日付</text><rect x="16" y="310" width="343" height="36" rx="6" fill="#fff" stroke="#bbb"/><text x="26" y="333" font-size="12" fill="#333">2026-05-20</text><text x="16" y="372" font-size="11" fill="#333">方向:</text><rect x="60" y="358" width="70" height="26" rx="13" fill="#3b3b3b"/><text x="95" y="375" font-size="11" fill="#fff" text-anchor="middle">受領</text><rect x="138" y="358" width="70" height="26" rx="13" fill="#fff" stroke="#bbb"/><text x="173" y="375" font-size="11" fill="#333" text-anchor="middle">贈与</text><rect x="16" y="702" width="343" height="44" rx="22" fill="#3b3b3b" stroke="#3b3b3b"/><text x="187.5" y="730" font-size="13" fill="#fff" text-anchor="middle">確認して保存</text><rect x="0" y="768" width="375" height="44" fill="#fafafa" stroke="#bbb"/><rect x="10.0" y="788" width="73.75" height="4" rx="2" fill="#3b3b3b"/><rect x="103.75" y="788" width="73.75" height="4" rx="2" fill="#3b3b3b"/><rect x="197.5" y="788" width="73.75" height="4" rx="2" fill="#bbb"/><rect x="291.25" y="788" width="73.75" height="4" rx="2" fill="#bbb"/><text x="187.5" y="783" font-size="9" fill="#888" text-anchor="middle">撮影ウィザード 2/4</text><text x="16" y="758" font-size="9" fill="#888">低信頼項目に要確認バッジ (S-3,S-9)</text>
</svg>
