<svg xmlns="http://www.w3.org/2000/svg" width="375" height="812" viewBox="0 0 375 812" font-family="sans-serif">
<rect x="0" y="0" width="375" height="812" fill="#fff" stroke="#222" stroke-width="2"/>
<rect x="0" y="0" width="375" height="24" fill="#fafafa"/>
<text x="12" y="16" font-size="10" fill="#888">9:41</text>
<text x="363" y="16" font-size="10" fill="#888" text-anchor="end">100%</text>
<!-- screen title chip -->
<text x="365" y="804" font-size="9" fill="#ccc" text-anchor="end">gift-suggest</text><rect x="0" y="24" width="375" height="48" fill="#fafafa" stroke="#bbb"/><text x="14" y="54" font-size="18" fill="#333">‹</text><text x="187.5" y="54" font-size="15" fill="#333" text-anchor="middle" font-weight="bold">お返し品の提案</text><rect x="16" y="84" width="120" height="26" rx="13" fill="#f4f4f5" stroke="#bbb"/><text x="76" y="101" font-size="11" fill="#333" text-anchor="middle">予算 ¥10–15k</text><rect x="16" y="126" width="343" height="136" rx="8" fill="#fff" stroke="#bbb"/><rect x="28" y="138" width="80" height="80" rx="6" fill="#eee" stroke="#bbb" stroke-dasharray="4 3"/><text x="68" y="182" font-size="9" fill="#888" text-anchor="middle">商品画像</text><text x="120" y="156" font-size="12" fill="#333">カタログギフト A</text><text x="120" y="176" font-size="10" fill="#888">¥12,000 ・ 外部サイト↗</text><rect x="120" y="196" width="100" height="30" rx="15" fill="#3b3b3b"/><text x="170" y="216" font-size="11" fill="#fff" text-anchor="middle">これにする</text><rect x="16" y="276" width="343" height="136" rx="8" fill="#fff" stroke="#bbb"/><rect x="28" y="288" width="80" height="80" rx="6" fill="#eee" stroke="#bbb" stroke-dasharray="4 3"/><text x="68" y="332" font-size="9" fill="#888" text-anchor="middle">商品画像</text><text x="120" y="306" font-size="12" fill="#333">カタログギフト B</text><text x="120" y="326" font-size="10" fill="#888">¥13,000 ・ 外部サイト↗</text><rect x="120" y="346" width="100" height="30" rx="15" fill="#3b3b3b"/><text x="170" y="366" font-size="11" fill="#fff" text-anchor="middle">これにする</text><rect x="16" y="426" width="343" height="136" rx="8" fill="#fff" stroke="#bbb"/><rect x="28" y="438" width="80" height="80" rx="6" fill="#eee" stroke="#bbb" stroke-dasharray="4 3"/><text x="68" y="482" font-size="9" fill="#888" text-anchor="middle">商品画像</text><text x="120" y="456" font-size="12" fill="#333">カタログギフト C</text><text x="120" y="476" font-size="10" fill="#888">¥14,000 ・ 外部サイト↗</text><rect x="120" y="496" width="100" height="30" rx="15" fill="#3b3b3b"/><text x="170" y="516" font-size="11" fill="#fff" text-anchor="middle">これにする</text><text x="16" y="788" font-size="9" fill="#888">MVP は提案のみ・noshi 内決済なし (S-6)</text>
</svg>
