<svg xmlns="http://www.w3.org/2000/svg" width="375" height="812" viewBox="0 0 375 812" font-family="sans-serif">
<rect x="0" y="0" width="375" height="812" fill="#fff" stroke="#222" stroke-width="2"/>
<rect x="0" y="0" width="375" height="24" fill="#fafafa"/>
<text x="12" y="16" font-size="10" fill="#888">9:41</text>
<text x="363" y="16" font-size="10" fill="#888" text-anchor="end">100%</text>
<!-- screen title chip -->
<text x="365" y="804" font-size="9" fill="#ccc" text-anchor="end">half-return</text><rect x="0" y="24" width="375" height="48" fill="#fafafa" stroke="#bbb"/><text x="14" y="54" font-size="18" fill="#333">‹</text><text x="187.5" y="54" font-size="15" fill="#333" text-anchor="middle" font-weight="bold">半返し計算</text><rect x="16" y="84" width="343" height="64" rx="8" fill="#f4f4f5" stroke="#bbb"/><text x="28" y="106" font-size="12" fill="#333">もらった額</text><text x="28" y="124" font-size="10" fill="#888">¥30,000 / 出産祝い</text><rect x="16" y="164" width="343" height="96" rx="8" fill="#f4f4f5" stroke="#bbb"/><text x="187.5" y="200" font-size="12" fill="#888" text-anchor="middle">推奨お返し額</text><text x="187.5" y="236" font-size="22" fill="#333" text-anchor="middle" font-weight="bold">¥10,000 〜 ¥15,000</text><rect x="16" y="276" width="343" height="110" rx="8" fill="#f4f4f5" stroke="#bbb"/><text x="28" y="298" font-size="12" fill="#333">根拠</text><text x="28" y="316" font-size="10" fill="#888">出産祝いは 1/3〜半返しが目安 / 地域慣習を初期値</text><text x="16" y="416" font-size="10" fill="#888">上書き額（任意）</text><rect x="16" y="420" width="343" height="36" rx="6" fill="#fff" stroke="#bbb"/><rect x="16" y="722" width="343" height="44" rx="22" fill="#3b3b3b" stroke="#3b3b3b"/><text x="187.5" y="750" font-size="13" fill="#fff" text-anchor="middle">次へ（お返し品）</text><text x="16" y="776" font-size="9" fill="#888">S-5 / 上書きは以後の提案に反映</text>
</svg>
