<svg xmlns="http://www.w3.org/2000/svg" width="375" height="812" viewBox="0 0 375 812" font-family="sans-serif">
<rect x="0" y="0" width="375" height="812" fill="#fff" stroke="#222" stroke-width="2"/>
<rect x="0" y="0" width="375" height="24" fill="#fafafa"/>
<text x="12" y="16" font-size="10" fill="#888">9:41</text>
<text x="363" y="16" font-size="10" fill="#888" text-anchor="end">100%</text>
<!-- screen title chip -->
<text x="365" y="804" font-size="9" fill="#ccc" text-anchor="end">home</text><rect x="0" y="24" width="375" height="48" fill="#fafafa" stroke="#bbb"/><text x="187.5" y="54" font-size="15" fill="#333" text-anchor="middle" font-weight="bold">noshi</text><text x="361" y="54" font-size="12" fill="#3b3b3b" text-anchor="end">⚙</text><rect x="20.0" y="84" width="106.33333333333333" height="64" rx="8" fill="#f4f4f5" stroke="#bbb"/><text x="32.0" y="106" font-size="12" fill="#333">もらった</text><text x="32.0" y="124" font-size="10" fill="#888">¥84,000</text><rect x="134.33333333333331" y="84" width="106.33333333333333" height="64" rx="8" fill="#f4f4f5" stroke="#bbb"/><text x="146.33333333333331" y="106" font-size="12" fill="#333">あげた</text><text x="146.33333333333331" y="124" font-size="10" fill="#888">¥39,000</text><rect x="248.66666666666666" y="84" width="106.33333333333333" height="64" rx="8" fill="#f4f4f5" stroke="#bbb"/><text x="260.66666666666663" y="106" font-size="12" fill="#333">差分</text><text x="260.66666666666663" y="124" font-size="10" fill="#888">+¥45,000</text><text x="16" y="180" font-size="12" fill="#333" font-weight="bold">未完了のお返し</text><rect x="16" y="192" width="343" height="60" rx="8" fill="#f4f4f5" stroke="#bbb"/><text x="28" y="214" font-size="12" fill="#333">佐藤様 出産祝い ¥30,000</text><text x="28" y="232" font-size="10" fill="#888">検討中 — タップで詳細</text><rect x="16" y="260" width="343" height="60" rx="8" fill="#f4f4f5" stroke="#bbb"/><text x="28" y="282" font-size="12" fill="#333">田中様 結婚祝い ¥50,000</text><text x="28" y="300" font-size="10" fill="#888">検討中</text><text x="16" y="356" font-size="12" fill="#333" font-weight="bold">直近の記録</text><rect x="16" y="368" width="343" height="56" rx="8" fill="#f4f4f5" stroke="#bbb"/><text x="28" y="390" font-size="12" fill="#333">山田様 お中元 ¥5,000</text><text x="28" y="408" font-size="10" fill="#888">受領 8/3</text><rect x="16" y="692" width="343" height="44" rx="22" fill="#3b3b3b" stroke="#3b3b3b"/><text x="187.5" y="720" font-size="13" fill="#fff" text-anchor="middle">＋ 贈答を撮影</text><text x="16" y="752" font-size="9" fill="#888">主導線=撮影。台帳/設定はヘッダ・メニューから (S-4,S-8)</text>
</svg>
