<svg xmlns="http://www.w3.org/2000/svg" width="375" height="812" viewBox="0 0 375 812" font-family="sans-serif">
<rect x="0" y="0" width="375" height="812" fill="#fff" stroke="#222" stroke-width="2"/>
<rect x="0" y="0" width="375" height="24" fill="#fafafa"/>
<text x="12" y="16" font-size="10" fill="#888">9:41</text>
<text x="363" y="16" font-size="10" fill="#888" text-anchor="end">100%</text>
<!-- screen title chip -->
<text x="365" y="804" font-size="9" fill="#ccc" text-anchor="end">ledger</text><rect x="0" y="24" width="375" height="48" fill="#fafafa" stroke="#bbb"/><text x="14" y="54" font-size="18" fill="#333">‹</text><text x="187.5" y="54" font-size="15" fill="#333" text-anchor="middle" font-weight="bold">贈答の台帳</text><rect x="16" y="84" width="343" height="36" rx="18" fill="#f4f4f5" stroke="#bbb"/><text x="34" y="107" font-size="12" fill="#888">🔍 検索（相手・用途）</text><rect x="16" y="130" width="64" height="26" rx="13" fill="#fff" stroke="#bbb"/><text x="48" y="147" font-size="10" fill="#333" text-anchor="middle">相手 ▾</text><rect x="88" y="130" width="64" height="26" rx="13" fill="#fff" stroke="#bbb"/><text x="120" y="147" font-size="10" fill="#333" text-anchor="middle">用途 ▾</text><rect x="160" y="130" width="64" height="26" rx="13" fill="#fff" stroke="#bbb"/><text x="192" y="147" font-size="10" fill="#333" text-anchor="middle">期間 ▾</text><rect x="16" y="172" width="343" height="56" rx="8" fill="#fff" stroke="#bbb"/><text x="28" y="196" font-size="11" fill="#888">↙ 受領</text><text x="92" y="196" font-size="12" fill="#333">佐藤 花子</text><text x="347" y="196" font-size="12" fill="#333" text-anchor="end">¥30,000</text><text x="92" y="214" font-size="10" fill="#888">出産祝 5/20</text><rect x="16" y="236" width="343" height="56" rx="8" fill="#fff" stroke="#bbb"/><text x="28" y="260" font-size="11" fill="#888">↗ 贈与</text><text x="92" y="260" font-size="12" fill="#333">田中 太郎</text><text x="347" y="260" font-size="12" fill="#333" text-anchor="end">¥50,000</text><text x="92" y="278" font-size="10" fill="#888">結婚祝 4/2</text><rect x="16" y="300" width="343" height="56" rx="8" fill="#fff" stroke="#bbb"/><text x="28" y="324" font-size="11" fill="#888">↙ 受領</text><text x="92" y="324" font-size="12" fill="#333">山田 一郎</text><text x="347" y="324" font-size="12" fill="#333" text-anchor="end">¥5,000</text><text x="92" y="342" font-size="10" fill="#888">お中元 8/3</text><rect x="16" y="364" width="343" height="56" rx="8" fill="#fff" stroke="#bbb"/><text x="28" y="388" font-size="11" fill="#888">↙ 受領</text><text x="92" y="388" font-size="12" fill="#333">鈴木 桜</text><text x="347" y="388" font-size="12" fill="#333" text-anchor="end">¥10,000</text><text x="92" y="406" font-size="10" fill="#888">入学祝 3/30</text><rect x="16" y="440" width="343" height="56" rx="8" fill="#f4f4f5" stroke="#bbb"/><text x="28" y="462" font-size="12" fill="#333">相手別サマリ</text><text x="28" y="480" font-size="10" fill="#888">佐藤様: もらった ¥30,000 / 差分 +¥30,000</text><text x="16" y="788" font-size="9" fill="#888">行タップ→event-detail / 空は EmptyState (S-4)</text>
</svg>
