<svg xmlns="http://www.w3.org/2000/svg" width="375" height="812" viewBox="0 0 375 812" font-family="sans-serif">
<rect x="0" y="0" width="375" height="812" fill="#fff" stroke="#222" stroke-width="2"/>
<rect x="0" y="0" width="375" height="24" fill="#fafafa"/>
<text x="12" y="16" font-size="10" fill="#888">9:41</text>
<text x="363" y="16" font-size="10" fill="#888" text-anchor="end">100%</text>
<!-- screen title chip -->
<text x="365" y="804" font-size="9" fill="#ccc" text-anchor="end">letter</text><rect x="0" y="24" width="375" height="48" fill="#fafafa" stroke="#bbb"/><text x="14" y="54" font-size="18" fill="#333">‹</text><text x="187.5" y="54" font-size="15" fill="#333" text-anchor="middle" font-weight="bold">礼状の文面</text><text x="16" y="100" font-size="11" fill="#888">トーン:</text><rect x="64" y="86" width="78" height="26" rx="13" fill="#3b3b3b" stroke="#3b3b3b"/><text x="103" y="103" font-size="11" fill="#fff" text-anchor="middle">丁寧</text><rect x="150" y="86" width="78" height="26" rx="13" fill="#fff" stroke="#bbb"/><text x="189" y="103" font-size="11" fill="#333" text-anchor="middle">標準</text><rect x="236" y="86" width="78" height="26" rx="13" fill="#fff" stroke="#bbb"/><text x="275" y="103" font-size="11" fill="#333" text-anchor="middle">カジュアル</text><rect x="16" y="128" width="343" height="300" rx="8" fill="#fff" stroke="#bbb"/><text x="28" y="156" font-size="11" fill="#333">この度はご出産のお祝いを賜り…</text><text x="28" y="178" font-size="11" fill="#333">（生成された文面・編集可）</text><rect x="16" y="450" width="167.5" height="44" rx="22" fill="#fff" stroke="#3b3b3b"/><text x="99.75" y="478" font-size="13" fill="#333" text-anchor="middle">コピー</text><rect x="191.5" y="450" width="167.5" height="44" rx="22" fill="#fff" stroke="#3b3b3b"/><text x="275.25" y="478" font-size="13" fill="#333" text-anchor="middle">書き出し</text><rect x="16" y="722" width="343" height="44" rx="22" fill="#3b3b3b" stroke="#3b3b3b"/><text x="187.5" y="750" font-size="13" fill="#fff" text-anchor="middle">このお礼で完了</text><text x="16" y="776" font-size="9" fill="#888">LLM 送信は最小化 (S-7 AC3)</text>
</svg>
