<svg xmlns="http://www.w3.org/2000/svg" width="375" height="812" viewBox="0 0 375 812" font-family="sans-serif">
<rect x="0" y="0" width="375" height="812" fill="#fff" stroke="#222" stroke-width="2"/>
<rect x="0" y="0" width="375" height="24" fill="#fafafa"/>
<text x="12" y="16" font-size="10" fill="#888">9:41</text>
<text x="363" y="16" font-size="10" fill="#888" text-anchor="end">100%</text>
<!-- screen title chip -->
<text x="365" y="804" font-size="9" fill="#ccc" text-anchor="end">login</text><rect x="0" y="24" width="375" height="48" fill="#fafafa" stroke="#bbb"/><text x="187.5" y="54" font-size="15" fill="#333" text-anchor="middle" font-weight="bold">noshi へようこそ</text><circle cx="187.5" cy="150" r="34" fill="#f4f4f5" stroke="#bbb"/><text x="187.5" y="156" font-size="13" fill="#888" text-anchor="middle">logo</text><rect x="28" y="210" width="319" height="44" rx="22" fill="#fff" stroke="#3b3b3b"/><text x="187.5" y="238" font-size="13" fill="#333" text-anchor="middle">Google で続ける</text><rect x="28" y="262" width="319" height="44" rx="22" fill="#fff" stroke="#3b3b3b"/><text x="187.5" y="290" font-size="13" fill="#333" text-anchor="middle">Apple で続ける</text><text x="167.5" y="330" font-size="9" fill="#888">または</text><text x="28" y="356" font-size="10" fill="#888">メールアドレス</text><rect x="28" y="360" width="319" height="36" rx="6" fill="#fff" stroke="#bbb"/><text x="28" y="418" font-size="10" fill="#888">パスワード</text><rect x="28" y="422" width="319" height="36" rx="6" fill="#fff" stroke="#bbb"/><rect x="28" y="480" width="319" height="44" rx="22" fill="#3b3b3b" stroke="#3b3b3b"/><text x="187.5" y="508" font-size="13" fill="#fff" text-anchor="middle">ログイン</text><text x="28" y="540" font-size="9" fill="#888">※連続失敗でレート制限 / エラーは汎用文言 (OWASP)</text>
</svg>
