<svg xmlns="http://www.w3.org/2000/svg" width="375" height="812" viewBox="0 0 375 812" font-family="sans-serif">
<rect x="0" y="0" width="375" height="812" fill="#fff" stroke="#222" stroke-width="2"/>
<rect x="0" y="0" width="375" height="24" fill="#fafafa"/>
<text x="12" y="16" font-size="10" fill="#888">9:41</text>
<text x="363" y="16" font-size="10" fill="#888" text-anchor="end">100%</text>
<!-- screen title chip -->
<text x="365" y="804" font-size="9" fill="#ccc" text-anchor="end">settings</text><rect x="0" y="24" width="375" height="48" fill="#fafafa" stroke="#bbb"/><text x="14" y="54" font-size="18" fill="#333">‹</text><text x="187.5" y="54" font-size="15" fill="#333" text-anchor="middle" font-weight="bold">設定</text><text x="16" y="100" font-size="11" fill="#888">アカウント</text><rect x="16" y="110" width="343" height="50" rx="8" fill="#f4f4f5" stroke="#bbb"/><text x="28" y="132" font-size="12" fill="#333">プロフィール</text><rect x="16" y="168" width="343" height="50" rx="8" fill="#f4f4f5" stroke="#bbb"/><text x="28" y="190" font-size="12" fill="#333">ログアウト</text><text x="16" y="252" font-size="11" fill="#888">プライバシー</text><rect x="16" y="262" width="343" height="50" rx="8" fill="#f4f4f5" stroke="#bbb"/><text x="28" y="284" font-size="12" fill="#333">同意状況の確認</text><rect x="16" y="320" width="343" height="50" rx="8" fill="#f4f4f5" stroke="#bbb"/><text x="28" y="342" font-size="12" fill="#333">データをエクスポート</text><text x="16" y="412" font-size="11" fill="#a33">Danger Zone</text><rect x="16" y="422" width="343" height="50" rx="8" fill="#fff" stroke="#a33"/><text x="28" y="452" font-size="12" fill="#a33">アカウントと全データを削除</text><text x="16" y="500" font-size="9" fill="#888">削除=確認ダイアログ必須・監査ログ記録 (S-2,S-13)</text>
</svg>
